<svg width="2071" height="1965" viewBox="0 0 2071 1965" fill="none" xmlns="http://www.w3.org/2000/svg">
<g clip-path="url(#clip0_1_2)">
<g clip-path="url(#clip1_1_2)">
<path fill-rule="evenodd" clip-rule="evenodd" d="M1336.11 144.518C1457.31 136.233 1578.52 127.959 1699.72 119.684C888.115 226.815 627.455 767.787 656.742 1150.83C674.722 1385.99 813.772 1571.75 1053.82 1619C1288.47 1665.18 1588.25 1554.63 1724.94 1024.82C1709.98 1214.44 1672.21 1403.72 1498.23 1590.95C1129.32 1854.04 769.227 1669.32 642.564 1411.47C387.477 892.238 806.138 265.408 1336.11 144.518Z" fill="url(#paint0_linear_1_2)"/>
<path fill-rule="evenodd" clip-rule="evenodd" d="M1336.11 144.518C777.502 221.312 460.499 585.142 368.596 959.097C267.918 1368.71 506.326 1831.5 956.014 1843.62C1123.31 1848.12 1311.83 1779.5 1498.23 1590.95C1129.32 1854.04 769.227 1669.32 642.564 1411.47C387.477 892.238 806.138 265.408 1336.11 144.518ZM1699.72 119.684C888.115 226.815 627.455 767.787 656.742 1150.83C674.722 1385.99 813.772 1571.75 1053.82 1619C1288.47 1665.18 1588.25 1554.63 1724.94 1024.82C1613.5 1420.46 1213.36 1552.23 1015.72 1258.78C715.856 813.563 1223.98 222.793 1699.72 119.684Z" fill="black"/>
</g>
</g>
<defs>
<linearGradient id="paint0_linear_1_2" x1="869.875" y1="1649.92" x2="1345.07" y2="688.171" gradientUnits="userSpaceOnUse">
<stop stop-color="#B07630"/>
<stop offset="1" stop-color="#FFF9E5"/>
</linearGradient>
<clipPath id="clip0_1_2">
<rect width="2071" height="1965" fill="white"/>
</clipPath>
<clipPath id="clip1_1_2">
<rect width="2155" height="2500" fill="white" transform="translate(-42 -268)"/>
</clipPath>
</defs>
</svg>
